<?xml version="1.0"?>
<svg width="707.1" height="200" xmlns="http://www.w3.org/2000/svg" xmlns:svg="http://www.w3.org/2000/svg">
 <g class="layer">
  <title>Layer 1</title>
  <g fill="#000000" id="svg_1" transform="translate(0 144) scale(0.1 -0.1)">
   <path d="m657.145236,1345.662472c-47.626233,-28.638596 -73.271127,-61.368421 -76.934684,-94.098245c-3.663556,-28.638596 -14.654225,-61.368421 -23.813116,-73.642105c-9.158891,-12.273684 -5.495335,-36.821052 10.990669,-61.368421c14.654225,-20.45614 27.476673,-30.68421 27.476673,-20.45614c0,10.22807 14.654225,4.091228 34.803785,-16.364912c21.981338,-22.501754 29.308451,-51.140351 23.813116,-83.870175c-9.158891,-53.185965 -21.981338,-63.414035 -51.289789,-32.729824c-9.158891,8.182456 -29.308451,0 -47.626233,-20.45614c-25.644895,-30.68421 -27.476673,-38.866667 -3.663556,-61.368421c21.981338,-20.45614 23.813116,-18.410526 16.486004,8.182456c-7.327113,16.364912 -3.663556,36.821052 5.495335,42.957895c38.467342,26.592982 71.439349,-14.319298 89.757131,-104.326315l20.14956,-94.098245l-45.794455,59.322807c-45.794455,59.322807 -45.794455,59.322807 3.663556,-38.866667c32.972007,-69.550877 43.962676,-106.371929 31.140229,-120.691228c-10.990669,-12.273684 -14.654225,-34.775438 -9.158891,-49.094737c5.495335,-20.45614 -5.495335,-28.638596 -36.635564,-28.638596c-25.644895,0 -53.121567,-8.182456 -58.616902,-20.45614c-25.644895,-47.049123 -60.44868,-18.410526 -53.121567,47.049123c1.831778,34.775438 5.495335,79.778947 7.327113,96.143859c0,16.364912 12.822447,0 27.476673,-36.821052c32.972007,-83.870175 73.271127,-75.687719 73.271127,16.364912c0,79.778947 -53.121567,132.964912 -82.430018,81.824561c-14.654225,-24.547368 -18.317782,-24.547368 -29.308451,8.182456c-7.327113,22.501754 -3.663556,42.957895 10.990669,53.185965c20.14956,14.319298 20.14956,24.547368 3.663556,47.049123c-25.644895,32.729824 -146.542255,57.277193 -161.19648,30.68421c-5.495335,-8.182456 7.327113,-16.364912 27.476673,-16.364912c56.785124,0 93.420687,-81.824561 91.588909,-196.378947c-1.831778,-143.192982 -12.822447,-171.831578 -62.280458,-171.831578c-23.813116,0 -47.626233,-8.182456 -53.121567,-16.364912c-12.822447,-24.547368 183.177818,4.091228 214.318047,32.729824c36.635564,34.775438 228.972273,24.547368 241.79472,-14.319298c16.486004,-45.003509 -20.14956,-73.642105 -54.953345,-42.957895c-23.813116,22.501754 -25.644895,20.45614 -16.486004,-8.182456c5.495335,-18.410526 3.663556,-32.729824 -7.327113,-32.729824c-9.158891,0 -23.813116,14.319298 -29.308451,32.729824c-5.495335,16.364912 -20.14956,24.547368 -31.140229,18.410526c-9.158891,-8.182456 -14.654225,-20.45614 -9.158891,-26.592982c18.317782,-18.410526 -29.308451,-65.459649 -65.944015,-65.459649c-20.14956,0 -62.280458,-22.501754 -91.588909,-51.140351c-45.794455,-42.957895 -71.439349,-51.140351 -139.215142,-47.049123c-78.766462,6.136842 -84.261796,10.22807 -102.579578,77.733333l-18.317782,71.596491l-7.327113,-57.277193c-14.654225,-124.782456 117.233804,-186.150876 239.962942,-110.463157c36.635564,22.501754 67.775793,49.094737 67.775793,59.322807c0,8.182456 12.822447,16.364912 27.476673,16.364912c51.289789,0 27.476673,-55.231579 -29.308451,-69.550877c-34.803785,-8.182456 -60.44868,-26.592982 -65.944015,-53.185965c-5.495335,-20.45614 -23.813116,-45.003509 -42.130898,-51.140351c-18.317782,-6.136842 -40.29912,-38.866667 -45.794455,-71.596491c-10.990669,-59.322807 -56.785124,-81.824561 -89.757131,-47.049123c-7.327113,10.22807 -21.981338,18.410526 -31.140229,18.410526c-9.158891,2.045614 -25.644895,4.091228 -34.803785,6.136842c-10.990669,0 -34.803785,32.729824 -54.953345,69.550877c-20.14956,34.775438 -36.635564,57.277193 -38.467342,45.003509c0,-10.22807 -3.663556,-38.866667 -7.327113,-63.414035c-5.495335,-30.68421 7.327113,-51.140351 51.289789,-77.733333l58.616902,-32.729824l-51.289789,8.182456c-64.112236,8.182456 -40.29912,-18.410526 29.308451,-36.821052c38.467342,-10.22807 49.458011,-8.182456 38.467342,10.22807c-7.327113,16.364912 -5.495335,18.410526 9.158891,10.22807c10.990669,-8.182456 16.486004,-24.547368 10.990669,-34.775438c-7.327113,-10.22807 12.822447,-18.410526 43.962676,-18.410526c29.308451,0 60.44868,-8.182456 65.944015,-20.45614c7.327113,-12.273684 -14.654225,-20.45614 -53.121567,-20.45614c-36.635564,0 -65.944015,8.182456 -65.944015,16.364912c0,10.22807 -53.121567,26.592982 -117.233804,36.821052c-131.888029,22.501754 -144.710476,0 -36.635564,-65.459649c34.803785,-20.45614 62.280458,-51.140351 62.280458,-69.550877c0,-20.45614 5.495335,-22.501754 14.654225,-6.136842c9.158891,16.364912 38.467342,16.364912 113.570247,-4.091228c54.953345,-14.319298 89.757131,-28.638596 76.934684,-28.638596c-12.822447,-2.045614 -18.317782,-12.273684 -12.822447,-22.501754c7.327113,-12.273684 20.14956,-14.319298 31.140229,-8.182456c12.822447,10.22807 14.654225,4.091228 5.495335,-12.273684c-9.158891,-16.364912 -42.130898,-22.501754 -104.411356,-16.364912c-84.261796,10.22807 -87.925353,8.182456 -58.616902,-26.592982c23.813116,-28.638596 36.635564,-32.729824 64.112236,-12.273684c25.644895,18.410526 38.467342,18.410526 56.785124,-2.045614c16.486004,-18.410526 12.822447,-24.547368 -16.486004,-24.547368c-21.981338,0 -45.794455,-10.22807 -53.121567,-22.501754c-9.158891,-16.364912 7.327113,-20.45614 53.121567,-14.319298c47.626233,6.136842 69.607571,-2.045614 84.261796,-28.638596c10.990669,-20.45614 34.803785,-36.821052 53.121567,-34.775438c21.981338,0 20.14956,6.136842 -10.990669,20.45614c-34.803785,14.319298 -42.130898,32.729824 -38.467342,83.870175c1.831778,36.821052 -1.831778,116.6 -9.158891,175.922806c-12.822447,96.143859 -9.158891,114.554386 32.972007,177.96842c25.644895,36.821052 47.626233,75.687719 47.626233,85.915789c0,8.182456 -16.486004,-6.136842 -34.803785,-32.729824c-18.317782,-26.592982 -42.130898,-42.957895 -53.121567,-34.775438c-27.476673,18.410526 -7.327113,69.550877 34.803785,83.870175c18.317782,8.182456 34.803785,30.68421 34.803785,53.185965c0,20.45614 12.822447,38.866667 27.476673,38.866667c14.654225,0 27.476673,10.22807 27.476673,20.45614c0,30.68421 49.458011,24.547368 111.738469,-12.273684c45.794455,-24.547368 54.953345,-40.912281 43.962676,-75.687719c-7.327113,-24.547368 -18.317782,-77.733333 -25.644895,-118.645614c-7.327113,-38.866667 -32.972007,-100.235087 -54.953345,-135.010526c-54.953345,-81.824561 -43.962676,-126.82807 38.467342,-173.877192c54.953345,-32.729824 75.102905,-34.775438 108.074913,-14.319298c32.972007,18.410526 43.962676,18.410526 62.280458,-8.182456c29.308451,-45.003509 179.514262,-92.052631 333.383629,-104.326315c119.065582,-8.182456 137.383364,-4.091228 192.336709,38.866667c32.972007,28.638596 91.588909,73.642105 130.056251,102.280701c84.261796,65.459649 108.074913,128.873684 93.420687,255.701753l-10.990669,96.143859l75.102905,34.775438c89.757131,38.866667 104.411356,71.596491 82.430018,171.831578c-14.654225,63.414035 -60.44868,112.508771 -130.056251,139.101754c-3.663556,0 14.654225,69.550877 40.29912,151.375438c34.803785,112.508771 40.29912,155.466666 25.644895,177.96842c-25.644895,32.729824 -364.523858,38.866667 -364.523858,4.091228c0,-10.22807 9.158891,-14.319298 18.317782,-8.182456c23.813116,16.364912 23.813116,-28.638596 -1.831778,-110.463157c-10.990669,-36.821052 -16.486004,-71.596491 -10.990669,-77.733333c5.495335,-6.136842 21.981338,34.775438 36.635564,87.961403l25.644895,100.235087l133.719807,6.136842c82.430018,4.091228 139.215142,-2.045614 146.542255,-16.364912c7.327113,-12.273684 -9.158891,-90.007017 -32.972007,-171.831578l-45.794455,-151.375438l-146.542255,-24.547368c-78.766462,-12.273684 -148.374033,-20.45614 -152.037589,-14.319298c-3.663556,4.091228 1.831778,36.821052 12.822447,73.642105c10.990669,36.821052 16.486004,69.550877 12.822447,75.687719c-5.495335,4.091228 -18.317782,-28.638596 -31.140229,-73.642105c-12.822447,-45.003509 -29.308451,-77.733333 -40.29912,-69.550877c-16.486004,10.22807 -10.990669,45.003509 14.654225,126.82807c7.327113,16.364912 0,20.45614 -23.813116,10.22807c-25.644895,-10.22807 -29.308451,-6.136842 -16.486004,26.592982c31.140229,79.778947 31.140229,186.150876 0,245.473683c-16.486004,32.729824 -23.813116,40.912281 -16.486004,18.410526c42.130898,-130.919298 16.486004,-296.614034 -45.794455,-296.614034c-16.486004,0 -45.794455,-6.136842 -65.944015,-12.273684c-23.813116,-6.136842 -58.616902,10.22807 -98.916022,49.094737l-62.280458,57.277193l45.794455,77.733333c31.140229,51.140351 51.289789,67.505263 58.616902,49.094737c5.495335,-14.319298 5.495335,6.136842 0,45.003509c-5.495335,38.866667 -23.813116,85.915789 -38.467342,102.280701c-25.644895,26.592982 -27.476673,26.592982 -16.486004,-8.182456c9.158891,-28.638596 3.663556,-34.775438 -18.317782,-24.547368c-14.654225,6.136842 -34.803785,12.273684 -40.29912,12.273684c-7.327113,0 0,10.22807 14.654225,20.45614c21.981338,16.364912 20.14956,20.45614 -12.822447,20.45614c-21.981338,0 -45.794455,-8.182456 -51.289789,-20.45614c-20.14956,-36.821052 -91.588909,-22.501754 -115.402026,22.501754c-25.644895,45.003509 -16.486004,165.694736 14.654225,222.971929c12.822447,24.547368 27.476673,22.501754 91.588909,-6.136842c53.121567,-22.501754 87.925353,-26.592982 109.906691,-14.319298c32.972007,18.410526 109.906691,-24.547368 109.906691,-63.414035c0,-28.638596 -95.252466,-20.45614 -146.542255,12.273684c-25.644895,16.364912 -62.280458,28.638596 -82.430018,28.638596c-36.635564,0 -36.635564,0 -1.831778,-28.638596c32.972007,-28.638596 32.972007,-30.68421 3.663556,-30.68421c-29.308451,0 -29.308451,-2.045614 -3.663556,-32.729824c29.308451,-32.729824 75.102905,-20.45614 56.785124,14.319298c-14.654225,22.501754 27.476673,24.547368 62.280458,0c12.822447,-10.22807 20.14956,-26.592982 12.822447,-38.866667c-9.158891,-18.410526 25.644895,-45.003509 64.112236,-45.003509c29.308451,0 18.317782,36.821052 -14.654225,49.094737c-20.14956,6.136842 -14.654225,8.182456 12.822447,6.136842c36.635564,-4.091228 47.626233,8.182456 54.953345,57.277193c9.158891,57.277193 10.990669,59.322807 32.972007,20.45614c20.14956,-36.821052 21.981338,-32.729824 12.822447,30.68421c-7.327113,38.866667 -27.476673,96.143859 -47.626233,126.82807c-18.317782,30.68421 -34.803785,63.414035 -34.803785,75.687719c0,10.22807 -29.308451,36.821052 -64.112236,61.368421c-86.093575,57.277193 -236.299386,55.231579 -331.551851,-6.136842zm84.261796,18.410526c0,-4.091228 -23.813116,-22.501754 -54.953345,-40.912281c-69.607571,-38.866667 -73.271127,-22.501754 -3.663556,18.410526c56.785124,34.775438 58.616902,36.821052 58.616902,22.501754zm382.84164,-875.522804c51.289789,6.136842 93.420687,6.136842 93.420687,0c0,-36.821052 -25.644895,-75.687719 -53.121567,-75.687719c-20.14956,-2.045614 -14.654225,-10.22807 16.486004,-30.68421c40.29912,-26.592982 42.130898,-28.638596 9.158891,-30.68421c-20.14956,0 -87.925353,20.45614 -152.037589,45.003509c-86.093575,34.775438 -117.233804,59.322807 -124.560916,92.052631c-7.327113,26.592982 -16.486004,42.957895 -23.813116,36.821052c-7.327113,-4.091228 -27.476673,10.22807 -43.962676,30.68421c-53.121567,71.596491 25.644895,61.368421 108.074913,-12.273684c69.607571,-63.414035 84.261796,-67.505263 170.355371,-55.231579zm-89.757131,-124.782456l137.383364,-79.778947l174.018927,14.319298c214.318047,16.364912 287.589175,32.729824 254.617167,55.231579c-40.29912,26.592982 -3.663556,45.003509 51.289789,24.547368c60.44868,-22.501754 76.934684,-77.733333 29.308451,-104.326315c-18.317782,-12.273684 -166.691815,-24.547368 -331.551851,-30.68421c-164.860036,-6.136842 -304.075178,-16.364912 -311.402291,-24.547368c-16.486004,-18.410526 598.991466,2.045614 646.617699,20.45614c25.644895,12.273684 31.140229,10.22807 18.317782,-6.136842c-10.990669,-12.273684 -100.7478,-38.866667 -201.4956,-57.277193c-100.7478,-20.45614 -192.336709,-49.094737 -205.159156,-63.414035c-10.990669,-16.364912 -56.785124,-34.775438 -100.7478,-38.866667l-78.766462,-10.22807l54.953345,30.68421c54.953345,28.638596 53.121567,28.638596 -65.944015,30.68421c-142.878698,2.045614 -265.607836,40.912281 -206.990935,65.459649c29.308451,12.273684 27.476673,16.364912 -20.14956,28.638596c-89.757131,24.547368 -228.972273,96.143859 -228.972273,116.6c0,10.22807 18.317782,4.091228 40.29912,-12.273684c21.981338,-18.410526 49.458011,-32.729824 58.616902,-32.729824c10.990669,0 0,14.319298 -21.981338,32.729824c-58.616902,45.003509 -53.121567,92.052631 10.990669,77.733333c27.476673,-4.091228 69.607571,4.091228 95.252466,20.45614c54.953345,34.775438 32.972007,40.912281 201.4956,-57.277193zm-228.972273,-257.747367c-14.654225,-26.592982 -64.112236,0 -64.112236,32.729824c0,24.547368 7.327113,24.547368 36.635564,8.182456c20.14956,-12.273684 32.972007,-30.68421 27.476673,-40.912281zm760.187946,-57.277193c0,-28.638596 -60.44868,-81.824561 -128.224473,-114.554386c-34.803785,-16.364912 -53.121567,-30.68421 -40.29912,-32.729824c12.822447,0 51.289789,14.319298 86.093575,28.638596c34.803785,16.364912 64.112236,22.501754 64.112236,12.273684c0,-49.094737 -174.018927,-130.919298 -344.374298,-163.649122l-86.093575,-16.364912l115.402026,-2.045614c71.439349,-2.045614 152.037589,12.273684 214.318047,36.821052c117.233804,47.049123 130.056251,38.866667 31.140229,-16.364912c-86.093575,-49.094737 -333.383629,-104.326315 -370.019193,-81.824561c-14.654225,8.182456 -58.616902,22.501754 -95.252466,28.638596c-73.271127,12.273684 -179.514262,98.189473 -179.514262,145.238596c0,20.45614 12.822447,18.410526 60.44868,-12.273684c31.140229,-22.501754 78.766462,-40.912281 102.579578,-40.912281c38.467342,0 34.803785,8.182456 -38.467342,59.322807c-104.411356,73.642105 -119.065582,100.235087 -80.59824,141.147368c25.644895,30.68421 43.962676,28.638596 203.327378,-6.136842c150.205811,-32.729824 186.841375,-34.775438 278.430284,-12.273684c58.616902,14.319298 119.065582,34.775438 133.719807,45.003509c34.803785,22.501754 73.271127,22.501754 73.271127,2.045614z" fill="#007f7f" id="svg_2"/>
   <path d="m942.902633,474.230897c0,-16.364912 91.588909,-49.094737 102.579578,-36.821052c3.663556,4.091228 -18.317782,18.410526 -47.626233,30.68421c-31.140229,12.273684 -54.953345,16.364912 -54.953345,6.136842z" fill="#007f7f" id="svg_3"/>
   <path d="m798.192156,269.669494c14.654225,-10.22807 73.271127,-22.501754 128.224473,-28.638596l98.916022,-12.273684l-109.906691,28.638596c-130.056251,34.775438 -157.532924,38.866667 -117.233804,12.273684z" fill="#007f7f" id="svg_4"/>
   <path d="m1122.416895,-112.860329c10.990669,-4.091228 32.972007,-4.091228 45.794455,0c10.990669,6.136842 1.831778,10.22807 -23.813116,10.22807c-25.644895,0 -34.803785,-4.091228 -21.981338,-10.22807z" fill="#007f7f" id="svg_5"/>
   <path d="m604.023669,1028.592298c-5.495335,-10.22807 -1.831778,-24.547368 9.158891,-32.729824c9.158891,-6.136842 18.317782,2.045614 18.317782,18.410526c0,36.821052 -10.990669,42.957895 -27.476673,14.319298z" fill="#007f7f" id="svg_6"/>
   <path d="m462.976749,930.402825c12.822447,-6.136842 29.308451,-4.091228 34.803785,2.045614c7.327113,6.136842 -3.663556,12.273684 -23.813116,10.22807c-20.14956,0 -25.644895,-6.136842 -10.990669,-12.273684z" fill="#007f7f" id="svg_7"/>
   <path d="m1155.388902,897.673c5.495335,-20.45614 16.486004,-30.68421 21.981338,-24.547368c5.495335,6.136842 0,22.501754 -12.822447,36.821052c-18.317782,18.410526 -20.14956,16.364912 -9.158891,-12.273684z" fill="#007f7f" id="svg_8"/>
   <path d="m1027.164429,887.44493c-3.663556,-8.182456 -1.831778,-28.638596 5.495335,-42.957895c10.990669,-20.45614 18.317782,-18.410526 25.644895,6.136842c10.990669,32.729824 -14.654225,65.459649 -31.140229,36.821052z" fill="#007f7f" id="svg_10"/>
   <path d="m1470.454749,725.841422c32.972007,-4.091228 82.430018,-4.091228 109.906691,0c27.476673,4.091228 0,8.182456 -60.44868,8.182456c-60.44868,0 -82.430018,-4.091228 -49.458011,-8.182456z" fill="#007f7f" id="svg_11"/>
   <path d="m257.817592,588.785282c-5.495335,-65.459649 -9.158891,-122.736842 -5.495335,-126.82807c12.822447,-14.319298 40.29912,175.922806 31.140229,208.652631c-7.327113,22.501754 -16.486004,-10.22807 -25.644895,-81.824561z" fill="#007f7f" id="svg_12"/>
   <path d="m1283.613375,668.564229c-16.486004,-53.185965 -12.822447,-65.459649 9.158891,-24.547368c10.990669,20.45614 16.486004,42.957895 10.990669,47.049123c-3.663556,6.136842 -12.822447,-4.091228 -20.14956,-22.501754z" fill="#007f7f" id="svg_13"/>
   <path d="m1036.32332,646.062475c0,-22.501754 5.495335,-28.638596 10.990669,-12.273684c5.495335,14.319298 3.663556,32.729824 -1.831778,38.866667c-5.495335,8.182456 -10.990669,-4.091228 -9.158891,-26.592982z" fill="#007f7f" id="svg_14"/>
   <path d="m166.228683,382.178266c-5.495335,-18.410526 -10.990669,-45.003509 -9.158891,-57.277193c0,-14.319298 9.158891,-2.045614 18.317782,24.547368c9.158891,26.592982 14.654225,53.185965 9.158891,57.277193c-3.663556,4.091228 -10.990669,-6.136842 -18.317782,-24.547368z" fill="#007f7f" id="svg_15"/>
   <path d="m199.20069,216.483529c5.495335,-18.410526 10.990669,-40.912281 10.990669,-51.140351c0,-8.182456 12.822447,-12.273684 27.476673,-6.136842c43.962676,18.410526 34.803785,90.007017 -10.990669,90.007017c-27.476673,0 -34.803785,-8.182456 -27.476673,-32.729824z" fill="#007f7f" id="svg_17"/>
   <path d="m283.462487,138.750196c0,-67.505263 45.794455,-108.417543 82.430018,-73.642105c14.654225,14.319298 27.476673,47.049123 27.476673,73.642105c0,40.912281 -9.158891,49.094737 -54.953345,49.094737c-45.794455,0 -54.953345,-8.182456 -54.953345,-49.094737z" fill="#007f7f" id="svg_18"/>
   <path d="m47.163101,73.290548c0,-22.501754 5.495335,-28.638596 10.990669,-12.273684c5.495335,14.319298 3.663556,32.729824 -1.831778,38.866667c-5.495335,8.182456 -10.990669,-4.091228 -9.158891,-26.592982z" fill="#007f7f" id="svg_19"/>
   <path d="m805.519269,-384.926995c-34.803785,-16.364912 -34.803785,-18.410526 3.663556,-18.410526c21.981338,-2.045614 45.794455,8.182456 51.289789,18.410526c12.822447,24.547368 -3.663556,24.547368 -54.953345,0z" fill="#007f7f" id="svg_20"/>
   <path d="m748.734145,-436.067345c14.654225,-16.364912 32.972007,-30.68421 40.29912,-30.68421c5.495335,0 1.831778,14.319298 -10.990669,30.68421c-12.822447,16.364912 -31.140229,30.68421 -40.29912,30.68421c-9.158891,0 -5.495335,-14.319298 10.990669,-30.68421z" fill="#007f7f" id="svg_21"/>
   <path d="m558.229214,-464.705942c45.794455,-28.638596 137.383364,-40.912281 163.028258,-24.547368c16.486004,12.273684 16.486004,22.501754 5.495335,30.68421c-10.990669,6.136842 -23.813116,4.091228 -29.308451,-6.136842c-7.327113,-12.273684 -34.803785,-12.273684 -71.439349,0c-71.439349,22.501754 -104.411356,22.501754 -67.775793,0z" fill="#007f7f" id="svg_22"/>
  </g>
  <g id="svg_9">
   <text fill="#007f7f" font-family="Fantasy" font-size="35" id="svg_16" stroke-width="0" text-anchor="middle" transform="matrix(4.83475 0 0 3.8156 -684.617 -189.19)" x="234.334372" xml:space="preserve" y="87.371588">山顶洞</text>
  </g>
 </g>
</svg>